<?xml version="1.0" encoding="utf-8"?>
<!-- Generator: Adobe Illustrator 18.1.0, SVG Export Plug-In . SVG Version: 6.00 Build 0)  -->
<!DOCTYPE svg PUBLIC "-//W3C//DTD SVG 1.1//EN" "http://www.w3.org/Graphics/SVG/1.1/DTD/svg11.dtd">
<svg version="1.1" id="Layer_1" xmlns="http://www.w3.org/2000/svg" xmlns:xlink="http://www.w3.org/1999/xlink" x="0px" y="0px"
	 viewBox="0 0 194 325.6" enable-background="new 0 0 194 325.6" xml:space="preserve">
<g id="EUwHnB_1_" opacity="0.25">
	
		<image overflow="visible" width="300" height="430" id="EUwHnB_2_" xlink:href="7A2BE2EE1EBB2B09.jpg"  transform="matrix(1 0 0 1 -903.4368 -49.6622)">
	</image>
</g>
<g>
	<path fill="none" stroke="#74E896" stroke-width="5" stroke-miterlimit="10" d="M100.8,15V6.7c0-2.1-1.7-3.7-3.8-3.7l0,0
		c-2.1,0-3.8,1.7-3.8,3.7V15"/>
</g>
<path fill="none" stroke="#74E896" stroke-width="5" stroke-miterlimit="10" d="M78,104.2"/>
<path fill="none" stroke="#74E896" stroke-width="5" stroke-miterlimit="10" d="M95.7,15C45.2,15.7,4.3,57.7,5,108.2
	c0.2,16.9,5,32.6,13.1,46.1c11.3,18.8,20.7,38.6,28.8,59L58.7,243l0.3,46.7l0,0l23,23v0c0,5,4,9,9,9h25.4c5,0,9-4,9-9v0l15-15
	c3-3,0.9-8-3.3-8H77c-2.8,0-5-2.2-5-5l0,0c0-2.8,2.2-5,5-5h59.9c2.5,0,4.5-2,4.5-4.5l0,0c0-2.5-2-4.5-4.5-4.5H76.7c-2.8,0-5-2.2-5-5
	l0,0c0-2.8,2.2-5,5-5h60.2c2.5,0,4.5-2,4.5-4.5v-0.7c0-2.5-2-4.5-4.5-4.5H70"/>
<g>
	<path fill="none" stroke="#74E896" stroke-width="5" stroke-miterlimit="10" d="M117.1,183.8l17.8-82.2c0.4-2.3,2.4-3.9,4.7-3.8h0
		c4.2,0.2,5.8,5.6,2.4,8.1l0,0l-17.3,12.8l-17.8-37.5c-1.7-3.6,0.9-7.8,4.9-7.8h0c4,0,6.6,4.2,4.9,7.8l-15,31.2
		c-1.3,2.7-5,2.8-6.5,0.2L77.6,82.2c-2.3-3.9,0.6-8.8,5.1-8.8h0c4.4,0,7.2,4.7,5.2,8.6l-19.6,36.6L51,106c-3.4-2.5-1.8-7.9,2.4-8.1
		h0c2.3-0.1,4.3,1.5,4.7,3.8L78,196h24.5c6.1,0,11,4.9,11,11v0c0,6.1-4.9,11-11,11h-14c-6.9,0-12.5,5.6-12.5,12.5v0
		c0,6.9,5.6,12.5,12.5,12.5H132l0,0l0,0l22.7-51.4c5.2-11.7,11.6-22.8,18.7-33.5c9.8-14.6,15.5-32.2,15.5-51.2
		c0-49.6-41.9-90-90.9-92"/>
</g>
</svg>
