<?xml version="1.0" encoding="utf-8"?>
<!-- Generator: Adobe Illustrator 18.1.0, SVG Export Plug-In . SVG Version: 6.00 Build 0)  -->
<!DOCTYPE svg PUBLIC "-//W3C//DTD SVG 1.1//EN" "http://www.w3.org/Graphics/SVG/1.1/DTD/svg11.dtd">
<svg version="1.1" id="Layer_1" xmlns="http://www.w3.org/2000/svg" xmlns:xlink="http://www.w3.org/1999/xlink" x="0px" y="0px"
	 viewBox="0 0 194 325.6" enable-background="new 0 0 194 325.6" xml:space="preserve">
<g>
	<path fill="none" stroke="#74E896" stroke-width="6.5" stroke-miterlimit="10" d="M100.8,18V6.7c0-2.1-1.7-3.7-3.8-3.7l0,0
		c-2.1,0-3.8,1.7-3.8,3.7V15"/>
</g>
<path fill="none" stroke="#74E896" stroke-width="6.5" stroke-miterlimit="10" d="M68,107.2"/>
<path fill="none" stroke="#74E896" stroke-width="6.5" stroke-miterlimit="10" d="M95.7,15C45.2,15.7,4.3,57.7,5,108.2
	c0.2,16.9,5,32.6,13.1,46.1c11.3,18.8,20.7,38.6,28.8,59L58.7,243l0.3,46.7l0,0l23,23v0c0,5,4,9,9,9h25.4c5,0,9-4,9-9v0l15-15
	c3-3,0.9-8-3.3-8H77c-2.8,0-5-2.2-5-5l0,0c0-2.8,2.2-5,5-5h59.9c2.5,0,4.5-2,4.5-4.5l0,0c0-2.5-2-4.5-4.5-4.5H76.7c-2.8,0-5-2.2-5-5
	l0,0c0-2.8,2.2-5,5-5h60.2c2.5,0,4.5-2,4.5-4.5v-0.7c0-2.5-2-4.5-4.5-4.5H70"/>
<path fill="none" stroke="#74E896" stroke-width="6.5" stroke-miterlimit="10" d="M127.1,186.8l17.8-82.2c0.4-2.3,2.4-3.9,4.7-3.8h0
	c4.2,0.2,5.8,5.6,2.4,8.1l0,0l-17.3,12.8L135,96h-8.7l-3.2,15h-9.1V96H104l0.3,30.1h-3.6l-5.1-29l3.3-11.3l-5.5-4.7l-4.7-34.3
	l-4.2,34.2l-5.3,4.5l3.9,11.6L81.6,121H72V95H58.2v26.7L41,109c-3.4-2.5-1.8-7.9,2.4-8.1h0c2.3-0.1,4.3,1.5,4.7,3.8L68,199h34.5
	c6.1,0,11,4.9,11,11v0c0,6.1-4.9,11-11,11h-14c-6.9,0-12.5,4.6-12.5,11.5v-2c0,6.9,5.6,12.5,12.5,12.5H132l0,0l0,0l22.7-51.4
	c5.2-11.7,11.6-22.8,18.7-33.5c9.8-14.6,15.5-32.2,15.5-51.2c0-49.6-41.9-90-90.9-92"/>
<line fill="none" stroke="#74E896" stroke-width="6.5" stroke-miterlimit="10" x1="108" y1="96" x2="108" y2="84.3"/>
<path fill="none" stroke="#74E896" stroke-width="6.5" stroke-miterlimit="10" d="M130,96"/>
<path fill="none" stroke="#74E896" stroke-width="6.5" stroke-miterlimit="10" d="M72,108.8"/>
</svg>
