<?xml version="1.0" encoding="utf-8"?>
<!-- Generator: Adobe Illustrator 18.1.0, SVG Export Plug-In . SVG Version: 6.00 Build 0)  -->
<!DOCTYPE svg PUBLIC "-//W3C//DTD SVG 1.1//EN" "http://www.w3.org/Graphics/SVG/1.1/DTD/svg11.dtd">
<svg version="1.1" id="Layer_1" xmlns="http://www.w3.org/2000/svg" xmlns:xlink="http://www.w3.org/1999/xlink" x="0px" y="0px"
	 viewBox="0 0 194 325.6" enable-background="new 0 0 194 325.6" xml:space="preserve">
<g>
	<path fill="#74E896" d="M103.2,15h-5V6.8c0-0.7-0.6-1.2-1.2-1.2s-1.2,0.6-1.2,1.2V15h-5V6.8c0-3.4,2.8-6.2,6.2-6.2s6.2,2.8,6.2,6.2
		V15z"/>
</g>
<path fill="none" stroke="#74E896" stroke-width="5" stroke-miterlimit="10" d="M78,104.2"/>
<path fill="#74E896" d="M116.4,324.2H91c-6,0-10.9-4.6-11.4-10.4l-23-23l-0.3-47.2l-11.6-29.2C35.8,192.2,26.4,173,16,155.7
	C7.4,141.4,2.7,125,2.5,108.3C1.8,56.2,43.6,13.2,95.7,12.5l0.1,5C46.4,18.2,6.9,58.9,7.5,108.2c0.2,15.8,4.6,31.4,12.8,44.9
	c10.6,17.6,20.1,37,28.9,59.3l12,30.1l0.3,46.1l23,23v1c0,3.6,2.9,6.5,6.5,6.5h25.4c3.6,0,6.5-2.9,6.5-6.5v-1l15.7-15.7
	c1-1,0.6-2.1,0.5-2.4c-0.1-0.3-0.7-1.4-2-1.4H77c-4.1,0-7.5-3.4-7.5-7.5s3.4-7.5,7.5-7.5h59.9c1.1,0,2-0.9,2-2s-0.9-2-2-2H76.7
	c-4.1,0-7.5-3.4-7.5-7.5s3.4-7.5,7.5-7.5h60.2c1.1,0,2-0.9,2-2v-0.7c0-1.1-0.9-2-2-2H70v-5h66.9c3.9,0,7,3.1,7,7v0.7
	c0,3.9-3.1,7-7,7H76.7c-1.4,0-2.5,1.1-2.5,2.5s1.1,2.5,2.5,2.5h60.2c3.9,0,7,3.1,7,7s-3.1,7-7,7H77c-1.4,0-2.5,1.1-2.5,2.5
	s1.1,2.5,2.5,2.5h60c3,0,5.5,1.7,6.7,4.5c1.1,2.7,0.5,5.8-1.6,7.9l-14.3,14.3C127.3,319.6,122.3,324.2,116.4,324.2z"/>
<g>
	<path fill="#74E896" d="M133.6,245.5H88.5c-8.3,0-15-6.7-15-15s6.7-15,15-15h14c4.7,0,8.5-3.8,8.5-8.5s-3.8-8.5-8.5-8.5H76
		l-17.7-84.1l-8.7-6.5c-2.4-1.8-3.4-4.8-2.5-7.7c0.9-2.9,3.4-4.8,6.3-5c3.5-0.2,6.7,2.3,7.3,5.8l2.2,10.4l4.6,3.4L80,91.3l-4.6-7.9
		c-1.5-2.6-1.5-5.7,0-8.3c1.5-2.6,4.2-4.2,7.2-4.2c3,0,5.6,1.5,7.2,4.1c1.5,2.5,1.6,5.6,0.2,8.2l-4.3,8l11.6,20.2
		c0.3,0.6,0.8,0.6,1.1,0.6c0.2,0,0.7-0.1,1-0.7l9.5-19.9l-4.4-9.2c-1.2-2.5-1-5.3,0.5-7.6c1.5-2.3,4-3.7,6.7-3.7
		c2.7,0,5.3,1.4,6.7,3.7c1.5,2.3,1.6,5.2,0.4,7.7l-4.4,9.2l11.1,23.4l4.5-3.3l2.3-10.4c0.6-3.5,3.7-6,7.3-5.8c3,0.2,5.5,2.1,6.3,5
		c0.9,2.9-0.1,5.9-2.5,7.6l-8.8,6.5l-15.2,69.9l-4.9-1.1l14-64.3l-4.9,3.6l-12-25.2l-7.8,16.2c-1,2.1-3,3.4-5.3,3.5
		c-2.3,0.1-4.4-1.1-5.6-3.1L83,96.4l-13.9,26l-4.7-3.5L80,193.5h22.5c7.4,0,13.5,6.1,13.5,13.5s-6.1,13.5-13.5,13.5h-14
		c-5.5,0-10,4.5-10,10s4.5,10,10,10h41.9l22.1-49.9c4.9-11.1,11.1-22.2,18.9-33.8c9.9-14.7,15.1-32,15.1-49.8
		c0-47.4-39.7-87.5-88.5-89.5l0.2-5c51.5,2.1,93.3,44.4,93.3,94.5c0,18.8-5.5,37-16,52.6c-7.7,11.4-13.7,22.3-18.5,33.1L133.6,245.5
		z M53.7,100.4c0,0-0.1,0-0.1,0c-1.3,0.1-1.7,1.1-1.8,1.4c-0.1,0.3-0.3,1.4,0.7,2.2l4.2,3.1l-1.1-5.1
		C55.5,101.1,54.7,100.4,53.7,100.4z M139.4,100.3c-1,0-1.8,0.7-2,1.7l0,0.1l-1.1,5l4.3-3.1c1-0.8,0.8-1.9,0.7-2.2
		c-0.1-0.3-0.5-1.4-1.8-1.4C139.5,100.3,139.4,100.3,139.4,100.3z M82.7,75.9c-1.2,0-2.3,0.6-2.9,1.7c-0.6,1-0.6,2.3,0,3.3l3,5.2
		l2.8-5.3c0.6-1.1,0.5-2.3-0.1-3.3C85,76.5,83.9,75.9,82.7,75.9z M111.8,75.9c-1,0-1.9,0.5-2.5,1.4c-0.5,0.9-0.6,1.9-0.2,2.8
		l2.6,5.6l2.7-5.5c0.4-0.9,0.4-2-0.2-2.8C113.8,76.4,112.9,75.9,111.8,75.9z"/>
</g>
</svg>
