<?xml version="1.0" encoding="utf-8"?>
<!-- Generator: Adobe Illustrator 18.1.0, SVG Export Plug-In . SVG Version: 6.00 Build 0)  -->
<!DOCTYPE svg PUBLIC "-//W3C//DTD SVG 1.1//EN" "http://www.w3.org/Graphics/SVG/1.1/DTD/svg11.dtd">
<svg version="1.1" id="Layer_1" xmlns="http://www.w3.org/2000/svg" xmlns:xlink="http://www.w3.org/1999/xlink" x="0px" y="0px"
	 viewBox="0 0 194 325.6" enable-background="new 0 0 194 325.6" xml:space="preserve">
<g>
	<g>
		<path fill="#74E896" d="M104,15h-6.5V6.8c0-0.3-0.2-0.5-0.5-0.5s-0.5,0.2-0.5,0.5V15H90V6.8c0-3.9,3.1-7,7-7s7,3.1,7,7V15z"/>
	</g>
	<path fill="none" stroke="#74E896" stroke-width="6.5" stroke-miterlimit="10" d="M78,104.2"/>
	<path fill="#74E896" d="M116.4,324.9H91c-6.3,0-11.5-4.7-12.2-10.8L55.8,291l-0.3-47.4l-11.6-29.1c-8.8-22-18.1-41.2-28.5-58.5
		C6.7,141.7,2,125.2,1.8,108.3C1.1,55.8,43.2,12.5,95.7,11.8l0.1,6.5c-48.9,0.7-88.1,41-87.5,89.9c0.2,15.7,4.6,31.1,12.7,44.5
		c10.6,17.6,20.1,37.1,29,59.5l12,30.2l0.3,45.9l23,23v1.3c0,3.2,2.6,5.8,5.8,5.8h25.4c3.2,0,5.8-2.6,5.8-5.8v-1.3l15.9-15.9
		c0.6-0.6,0.5-1.3,0.3-1.6c-0.1-0.3-0.5-0.9-1.3-0.9H77c-4.5,0-8.2-3.7-8.2-8.2s3.7-8.2,8.2-8.2h59.9c0.7,0,1.2-0.6,1.2-1.2
		s-0.6-1.2-1.2-1.2H76.7c-4.5,0-8.2-3.7-8.2-8.2s3.7-8.2,8.2-8.2h60.2c0.7,0,1.2-0.6,1.2-1.2v-0.7c0-0.7-0.6-1.2-1.2-1.2H70v-6.5
		h66.9c4.3,0,7.8,3.5,7.8,7.8v0.7c0,4.3-3.5,7.8-7.8,7.8H76.7c-1,0-1.8,0.8-1.8,1.8s0.8,1.8,1.8,1.8h60.2c4.3,0,7.8,3.5,7.8,7.8
		s-3.5,7.8-7.8,7.8H77c-1,0-1.8,0.8-1.8,1.8s0.8,1.8,1.8,1.8h60c3.2,0,6.1,1.9,7.4,4.9c1.2,3,0.6,6.4-1.7,8.7l-14.1,14.1
		C127.8,320.2,122.6,324.9,116.4,324.9z"/>
	<g>
		<path fill="#74E896" d="M134.1,246.2H88.5c-8.7,0-15.8-7.1-15.8-15.8s7.1-15.8,15.8-15.8h14c4.3,0,7.8-3.5,7.8-7.8
			s-3.5-7.8-7.8-7.8H75.4l-17.7-84.4l-8.5-6.3c-2.7-2-3.8-5.3-2.8-8.5c1-3.2,3.7-5.3,7-5.5c3.9-0.2,7.4,2.5,8,6.4l2.1,10.1l3.7,2.7
			l12-22.5l-4.4-7.5c-1.6-2.8-1.6-6.3,0-9.1c1.6-2.8,4.6-4.6,7.9-4.6c3.2,0,6.1,1.7,7.8,4.4c1.7,2.8,1.7,6.1,0.2,9l-4.1,7.7
			L98.1,111c0,0.1,0.1,0.2,0.4,0.2c0.3,0,0.3-0.2,0.4-0.2l9.4-19.5l-4.2-8.9c-1.3-2.7-1.1-5.8,0.5-8.4c1.6-2.5,4.3-4,7.3-4
			c3,0,5.8,1.5,7.4,4.1c1.6,2.5,1.8,5.7,0.5,8.4l-4.3,8.9l10.6,22.2l3.6-2.6l2.2-10.2c0.7-3.8,4.1-6.6,8-6.4c3.3,0.2,6.1,2.3,7,5.5
			c1,3.2-0.2,6.5-2.8,8.5l-8.6,6.3l-15.1,69.6l-6.4-1.4l13.5-62.4l-4,2.9L111.8,99l-7.1,14.8c-1.1,2.3-3.4,3.8-6,3.9
			c-2.6,0.1-5-1.2-6.3-3.5L83,98l-13.7,25.5l-3.8-2.8l15.2,72.1h21.9c7.9,0,14.2,6.4,14.2,14.2s-6.4,14.2-14.2,14.2h-14
			c-5.1,0-9.2,4.1-9.2,9.2s4.1,9.2,9.2,9.2h41.4l21.9-49.4c4.9-11.1,11.1-22.2,19-34c9.8-14.6,15-31.7,15-49.3
			c0-47-39.4-86.8-87.8-88.7l0.3-6.5c51.9,2.1,94,44.8,94,95.2c0,19-5.6,37.3-16.1,53c-7.6,11.4-13.7,22.2-18.5,33L134.1,246.2z
			 M53.7,101.1C53.7,101.1,53.7,101.1,53.7,101.1c-0.8,0-1.1,0.6-1.2,0.9c-0.1,0.3-0.2,0.9,0.5,1.4l2.6,1.9l-0.7-3.2
			C54.8,101.5,54.3,101.1,53.7,101.1z M139.4,101c-0.6,0-1.1,0.4-1.2,1l0,0.2l-0.7,3l2.7-2c0.6-0.5,0.5-1.1,0.5-1.4
			C140.5,101.6,140.2,101.1,139.4,101C139.4,101,139.4,101,139.4,101z M82.7,76.7c-1.4,0-2,0.9-2.2,1.3c-0.2,0.4-0.7,1.4,0,2.6
			l2.3,4l2.2-4.1c0.6-1.2,0.2-2.2-0.1-2.6S84,76.7,82.7,76.7z M111.8,76.7c-1.1,0-1.7,0.7-1.8,1c-0.2,0.3-0.6,1.1-0.1,2.1l2,4.1
			l2-4.1c0.5-1,0.1-1.8-0.1-2.1S112.9,76.7,111.8,76.7z"/>
	</g>
</g>
</svg>
