<?xml version="1.0" encoding="utf-8"?>
<!-- Generator: Adobe Illustrator 18.1.0, SVG Export Plug-In . SVG Version: 6.00 Build 0)  -->
<!DOCTYPE svg PUBLIC "-//W3C//DTD SVG 1.1//EN" "http://www.w3.org/Graphics/SVG/1.1/DTD/svg11.dtd">
<svg version="1.1" id="Layer_1" xmlns="http://www.w3.org/2000/svg" xmlns:xlink="http://www.w3.org/1999/xlink" x="0px" y="0px"
	 viewBox="0 0 194 325.6" enable-background="new 0 0 194 325.6" xml:space="preserve">
<g>
	<path fill="#231F20" d="M104,18h-6.5V6.8c0-0.3-0.2-0.5-0.5-0.5s-0.5,0.2-0.5,0.5V15H90V6.8c0-3.9,3.1-7,7-7s7,3.1,7,7V18z"/>
</g>
<path fill="none" stroke="#231F20" stroke-width="6.5" stroke-miterlimit="10" d="M68,107.2"/>
<path fill="#231F20" d="M116.4,324.9H91c-6.3,0-11.5-4.7-12.2-10.8L55.8,291l-0.3-47.4l-11.6-29.1c-8.8-22-18.1-41.2-28.5-58.5
	C6.7,141.7,2,125.2,1.8,108.3C1.1,55.8,43.2,12.5,95.7,11.8l0.1,6.5c-48.9,0.7-88.1,41-87.5,89.9c0.2,15.7,4.6,31.1,12.7,44.5
	c10.6,17.6,20.1,37.1,29,59.5l12,30.2l0.3,45.9l23,23v1.3c0,3.2,2.6,5.8,5.8,5.8h25.4c3.2,0,5.8-2.6,5.8-5.8v-1.3l15.9-15.9
	c0.6-0.6,0.5-1.3,0.3-1.6c-0.1-0.3-0.5-0.9-1.3-0.9H77c-4.5,0-8.2-3.7-8.2-8.2s3.7-8.2,8.2-8.2h59.9c0.7,0,1.2-0.6,1.2-1.2
	s-0.6-1.2-1.2-1.2H76.7c-4.5,0-8.2-3.7-8.2-8.2s3.7-8.2,8.2-8.2h60.2c0.7,0,1.2-0.6,1.2-1.2v-0.7c0-0.7-0.6-1.2-1.2-1.2H70v-6.5
	h66.9c4.3,0,7.8,3.5,7.8,7.8v0.7c0,4.3-3.5,7.8-7.8,7.8H76.7c-1,0-1.8,0.8-1.8,1.8s0.8,1.8,1.8,1.8h60.2c4.3,0,7.8,3.5,7.8,7.8
	s-3.5,7.8-7.8,7.8H77c-1,0-1.8,0.8-1.8,1.8s0.8,1.8,1.8,1.8h60c3.2,0,6.1,1.9,7.4,4.9c1.2,3,0.6,6.4-1.7,8.7l-14.1,14.1
	C127.8,320.2,122.6,324.9,116.4,324.9z"/>
<path fill="#231F20" d="M134.1,246.2H88.5c-8,0-14.6-6-15.6-13.8h-0.1v-2h0.1c1-7.4,7.4-12.8,15.6-12.8h14c4.3,0,7.8-3.5,7.8-7.8
	s-3.5-7.8-7.8-7.8H65.4l-17.7-84.4l-8.5-6.3c-2.7-2-3.8-5.3-2.8-8.5c1-3.2,3.7-5.3,7-5.5c3.9-0.2,7.4,2.5,8,6.4l2.1,10.1l1.5,1.1
	V91.8h20.3v26h3.3l1.2-20.1l-4.4-13.1l6-5.1l7.1-57.7l8,57.8l6.2,5.2L99,97.3l1.9,10.9l-0.2-15.5h16.6v15h3.2l3.2-15h14.6l-0.2,22.4
	l1.5-1.1l2.2-10.2c0.7-3.8,4.1-6.6,8-6.4c3.3,0.2,6.1,2.3,7,5.5c1,3.2-0.2,6.5-2.8,8.5l-8.6,6.3l-15.1,69.6l-6.4-1.4l13.5-62.4
	l-6.1,4.5l0.3-28.9H129l-3.2,15h-14.9v-15h-3.6l0.3,30.1H98L92.3,97l2.9-10l-4.9-4.1L88.9,72l-1.3,10.7l-4.6,3.9l3.4,10.1l-1.7,27.5
	H68.8v-26h-7.3v29.9l-6-4.4l15.2,72.1h31.9c7.9,0,14.2,6.4,14.2,14.2s-6.4,14.2-14.2,14.2h-14c-5.1,0-8.7,2.9-9.2,7.3
	c0.5,4.6,4.4,8.2,9.2,8.2h41.4l21.9-49.4c4.9-11.1,11.1-22.2,19-34c9.8-14.6,15-31.7,15-49.3c0-47-39.4-86.8-87.8-88.7l0.3-6.5
	c51.9,2.1,94,44.8,94,95.2c0,19-5.6,37.3-16.1,53c-7.6,11.4-13.7,22.2-18.5,33L134.1,246.2z M43.7,104.1
	C43.7,104.1,43.7,104.1,43.7,104.1c-0.8,0-1.1,0.6-1.2,0.9c-0.1,0.3-0.2,0.9,0.5,1.4l2.6,1.9l-0.7-3.2
	C44.8,104.5,44.3,104.1,43.7,104.1z M149.4,104c-0.6,0-1.1,0.4-1.2,1l0,0.2l-0.7,3l2.7-2c0.6-0.5,0.5-1.1,0.5-1.4
	C150.5,104.6,150.2,104.1,149.4,104C149.4,104,149.4,104,149.4,104z"/>
<rect x="104.8" y="84.3" fill="#231F20" width="6.5" height="11.7"/>
<path fill="none" stroke="#231F20" stroke-width="6.5" stroke-miterlimit="10" d="M130,96"/>
<path fill="none" stroke="#231F20" stroke-width="6.5" stroke-miterlimit="10" d="M72,108.8"/>
</svg>
